<svg width="25" height="25" viewBox="0 0 25 25" fill="none" xmlns="http://www.w3.org/2000/svg">
<g opacity="0.6">
<path d="M7.71533 22.2222C8.67783 23.8749 10.4501 24.9999 12.5001 24.9999C14.5501 24.9999 16.3223 23.8749 17.2848 22.2222H7.71533Z" fill="white"/>
<path fill-rule="evenodd" clip-rule="evenodd" d="M0 17.0542V20.8333H25V17.0542L24.05 16.7389C22.1264 16.0958 20.8333 14.3028 20.8333 12.275V8.33333C20.8333 3.7375 17.0958 0 12.5 0C7.90417 0 4.16667 3.7375 4.16667 8.33333V12.275C4.16667 14.3028 2.87361 16.0958 0.95 16.7389L0 17.0542ZM20.7861 18.0556H4.21528C5.90972 16.6639 6.94444 14.5639 6.94444 12.275V8.33333C6.94444 5.26944 9.43611 2.77778 12.5 2.77778C15.5639 2.77778 18.0556 5.26944 18.0556 8.33333V12.275C18.0556 14.5639 19.0903 16.6639 20.7861 18.0556Z" fill="white"/>
</g>
</svg>
