<svg width="16" height="16" viewBox="0 0 16 16" fill="none" xmlns="http://www.w3.org/2000/svg">
<path fill-rule="evenodd" clip-rule="evenodd" d="M15.7043 15.7048C15.3108 16.0984 14.6725 16.0984 14.2783 15.7048L11.1859 12.6124C10.018 13.4849 8.57389 14.0072 7.00372 14.0072C3.13567 14.0072 0 10.8721 0 7.00394C0 3.13576 3.13567 0 7.00372 0C10.8718 0 14.0074 3.13576 14.0074 7.00394C14.0074 8.57349 13.4845 10.0183 12.612 11.1863L15.7043 14.2787C16.0986 14.6723 16.0986 15.3106 15.7043 15.7048ZM7.00372 2.00113C4.24092 2.00113 2.00106 4.24105 2.00106 7.00394C2.00106 9.76616 4.24092 12.0068 7.00372 12.0068C9.76652 12.0068 12.0064 9.76616 12.0064 7.00394C12.0064 4.24105 9.76652 2.00113 7.00372 2.00113Z" fill="#BBBBBB"/>
</svg>
