<svg xmlns="http://www.w3.org/2000/svg">


  <symbol id="upload" viewBox="0 0 36 25">
    <path
      d="M23.4 0C18.2574 0 13.7574 3.0562 11.8116 7.65218C10.9098 7.34998 9.9594 7.19528 9 7.19528C4.0374 7.19528 0 11.23 0 16.1894C0 20.5317 3.0978 24.1671 7.2 25V21.2531C5.1084 20.5083 3.6 18.5314 3.6 16.1894C3.6 13.2141 6.0228 10.7929 9 10.7929C10.0242 10.7929 11.0322 11.0933 11.9142 11.66C12.4074 11.9783 13.023 12.0341 13.563 11.8146C14.1084 11.5952 14.508 11.1239 14.643 10.5537C15.5934 6.45956 19.1952 3.59764 23.4 3.59764C28.3626 3.59764 32.4 7.63239 32.4 12.5917C32.4 15.5184 30.9726 18.0979 28.8 19.742V23.9513C33.0498 21.9258 36 17.6033 36 12.5935C36 5.65009 30.3462 0 23.4 0Z"
      fill="currentcolor" />
    <path d="M23.7857 19.8702L18.3215 12.1794L12.8572 19.8702H16.5V25H20.1429V19.8702H23.7857Z" fill="currentcolor" />
  </symbol>

  <symbol id="bell" viewBox="0 0 25 25">
    <path
      d="M7.71533 22.2222C8.67783 23.8749 10.4501 24.9999 12.5001 24.9999C14.5501 24.9999 16.3223 23.8749 17.2848 22.2222H7.71533Z"
      fill="currentcolor" />
    <path fill-rule="evenodd" clip-rule="evenodd"
      d="M0 17.0542V20.8333H25V17.0542L24.05 16.7389C22.1264 16.0958 20.8333 14.3028 20.8333 12.275V8.33333C20.8333 3.7375 17.0958 0 12.5 0C7.90417 0 4.16667 3.7375 4.16667 8.33333V12.275C4.16667 14.3028 2.87361 16.0958 0.95 16.7389L0 17.0542ZM20.7861 18.0556H4.21528C5.90972 16.6639 6.94444 14.5639 6.94444 12.275V8.33333C6.94444 5.26944 9.43611 2.77778 12.5 2.77778C15.5639 2.77778 18.0556 5.26944 18.0556 8.33333V12.275C18.0556 14.5639 19.0903 16.6639 20.7861 18.0556Z"
      fill="currentcolor" />
  </symbol>

  <symbol id="m-glass" viewBox="0 0 16 16">
    <path fill-rule="evenodd" clip-rule="evenodd"
      d="M15.7043 15.7048C15.3108 16.0984 14.6725 16.0984 14.2783 15.7048L11.1859 12.6124C10.018 13.4849 8.57389 14.0072 7.00372 14.0072C3.13567 14.0072 0 10.8721 0 7.00394C0 3.13576 3.13567 0 7.00372 0C10.8718 0 14.0074 3.13576 14.0074 7.00394C14.0074 8.57349 13.4845 10.0183 12.612 11.1863L15.7043 14.2787C16.0986 14.6723 16.0986 15.3106 15.7043 15.7048ZM7.00372 2.00113C4.24092 2.00113 2.00106 4.24105 2.00106 7.00394C2.00106 9.76616 4.24092 12.0068 7.00372 12.0068C9.76652 12.0068 12.0064 9.76616 12.0064 7.00394C12.0064 4.24105 9.76652 2.00113 7.00372 2.00113Z"
      fill="currentcolor" />
  </symbol>

  <symbol id="dots" viewBox="0 0 18 5">
    <path fill="currentColor"
      d="M1.95898 4.10742C2.47982 4.10742 2.91276 3.9528 3.25781 3.64355C3.60286 3.33431 3.77539 2.9388 3.77539 2.45703C3.77539 1.97526 3.60286 1.57975 3.25781 1.27051C2.91276 0.961263 2.47982 0.806641 1.95898 0.806641C1.43164 0.806641 0.99707 0.962891 0.655273 1.27539C0.313477 1.58789 0.142578 1.98177 0.142578 2.45703C0.142578 2.93229 0.313477 3.32617 0.655273 3.63867C0.99707 3.95117 1.43164 4.10742 1.95898 4.10742ZM9.00391 4.10742C9.52474 4.10742 9.95768 3.9528 10.3027 3.64355C10.6478 3.33431 10.8203 2.9388 10.8203 2.45703C10.8203 1.97526 10.6478 1.57975 10.3027 1.27051C9.95768 0.961263 9.52474 0.806641 9.00391 0.806641C8.47656 0.806641 8.04199 0.962891 7.7002 1.27539C7.3584 1.58789 7.1875 1.98177 7.1875 2.45703C7.1875 2.93229 7.3584 3.32617 7.7002 3.63867C8.04199 3.95117 8.47656 4.10742 9.00391 4.10742ZM17.3477 3.64355C17.0026 3.9528 16.5697 4.10742 16.0488 4.10742C15.5215 4.10742 15.0869 3.95117 14.7451 3.63867C14.4033 3.32617 14.2324 2.93229 14.2324 2.45703C14.2324 1.98177 14.4033 1.58789 14.7451 1.27539C15.0869 0.962891 15.5215 0.806641 16.0488 0.806641C16.5697 0.806641 17.0026 0.961263 17.3477 1.27051C17.6927 1.57975 17.8652 1.97526 17.8652 2.45703C17.8652 2.9388 17.6927 3.33431 17.3477 3.64355Z">
    </path>
  </symbol>

  <!--Heart-->
  <symbol  viewBox="0 0 18 18" fill="none" id="heart">
    <path d="M18 8H10V0H8V8H0V10H8V18H10V10H18V8Z" fill="#fff"/>
  </symbol>
  <!--Add-->
  <symbol id="add" viewBox="0 0 18 16" fill="none" >
    <path fill-rule="evenodd" clip-rule="evenodd" d="M8.471 15.848C8.633 15.949 8.816 16 9 16C9.184 16 9.367 15.949 9.529 15.848C9.876 15.632 18 10.491 18 5C18 2.243 15.757 0 13 0C11.406 0 9.93 0.837 9 2.08C8.07 0.837 6.594 0 5 0C2.243 0 0 2.243 0 5C0 10.491 8.124 15.632 8.471 15.848ZM2 5C2 3.346 3.346 2 5 2C6.689 2 8 3.612 8 5C8 5.552 8.447 6 9 6C9.553 6 10 5.552 10 5C10 3.612 11.311 2 13 2C14.654 2 16 3.346 16 5C16 8.364 11.357 12.207 9 13.806C6.643 12.207 2 8.363 2 5Z" fill="#fff"/>
  </symbol>
  <!--Zoom-->
  <symbol id="zoom" viewBox="0 0 20 20" fill="none">
    <path d="M9 4H7V7H4V9H7V12H9V9H12V7H9V4Z" fill="#fff"/>
    <path fill-rule="evenodd" clip-rule="evenodd" d="M14.314 12.9L19.707 18.293L18.293 19.706L12.9 14.314C11.504 15.404 9.799 16 8 16C5.863 16 3.854 15.168 2.344 13.656C0.833 12.146 0 10.137 0 8C0 5.863 0.833 3.854 2.344 2.344C3.854 0.832 5.863 0 8 0C10.137 0 12.146 0.832 13.656 2.344C15.167 3.854 16 5.863 16 8C16 9.799 15.403 11.504 14.314 12.9ZM3.758 12.243C4.891 13.376 6.397 14 8 14C9.603 14 11.109 13.376 12.242 12.243C13.376 11.11 14 9.603 14 8C14 6.398 13.376 4.891 12.242 3.758C11.109 2.624 9.603 2 8 2C6.397 2 4.891 2.624 3.758 3.758C2.624 4.891 2 6.398 2 8C2 9.603 2.624 11.11 3.758 12.243Z" fill="white"/>
  </symbol>
  <!--Download-->
  <symbol  id="download" viewBox="0 0 16 21" fill="none" >
    <path d="M13.707 8.70798L12.293 7.29398L8.99997 10.587V0.000976562H6.99997V10.587L3.70697 7.29398L2.29297 8.70798L7.99997 14.415L13.707 8.70798Z" fill="#fff"/>
    <path d="M14 16.001V18.001H2V16.001H0V18.001C0 19.103 0.896 20.001 2 20.001H14C15.104 20.001 16 19.103 16 18.001V16.001H14Z" fill="#fff"/>
  <symbol id="pencil" viewBox="0 0 17 17">
    <path fill="currentColor" d="M14.5181 0.276288L16.7237 2.48186C17.0921 2.85024 17.0921 3.45006 16.7237 3.81844L14.9951 5.54702L11.4529 2.00486L13.1815 0.276288C13.5499 -0.0920961 14.1497 -0.0920961 14.5181 0.276288ZM0 17V13.4578L10.4517 3.0061L13.9939 6.54825L3.54216 17H0Z"></path>
  </symbol>

  <symbol viewBox="0 0 18 18" id="backTo">
    <path
      d="M20.0711 18.6569L14.4142 13L20.0711 7.34316L18.6569 5.92895L13 11.5858L7.34315 5.92895L5.92893 7.34316L11.5858 13L5.92893 18.6569L7.34315 20.0711L13 14.4142L18.6569 20.0711L20.0711 18.6569Z"
      fill="currentColor" />
  </symbol>

  <!-- <symbol viewBox="0 0 18 18" id="back2">
    <path
      d="M20.0711 18.6569L14.4142 13L20.0711 7.34316L18.6569 5.92895L13 11.5858L7.34315 5.92895L5.92893 7.34316L11.5858 13L5.92893 18.6569L7.34315 20.0711L13 14.4142L18.6569 20.0711L20.0711 18.6569Z"
      fill="white" />
  </symbol> -->
  <!--mountain-->
  <symbol id="mountain" viewBox="0 0 260 216">
    <path d="M39.373 210.874L5.4873 50.9888L220.627 5.12583L254.513 165.011L39.373 210.874Z" stroke="#F3F5F6" stroke-width="8"/>
    <rect x="25" y="25" width="220" height="163" fill="white" stroke="#F3F5F6" stroke-width="8"/>
    <path d="M214 160V133.25H196.947L173.333 62.1485C171.507 56.6781 166.413 53 160.667 53C154.92 53 149.827 56.6781 148.013 62.1485L129.96 116.451L118.427 99.0769C113.48 91.6404 101.187 91.6404 96.24 99.0769L73.5333 133.25H54V160H214Z" fill="#F3F5F6"/>
    <path d="M81.5 80C88.9558 80 95 73.9558 95 66.5C95 59.0442 88.9558 53 81.5 53C74.0442 53 68 59.0442 68 66.5C68 73.9558 74.0442 80 81.5 80Z" fill="#F3F5F6"/>
  </symbol>




</svg>
